<mxfile host="app.diagrams.net" modified="2022-07-11T02:49:04.505Z" agent="5.0 (Windows NT 10.0; Win64; x64) AppleWebKit/537.36 (KHTML, like Gecko) Chrome/103.0.0.0 Safari/537.36" etag="Qc0aDMrCa5MlFqzo4Mp8" version="20.0.3" type="github">
  <diagram id="44hp2nQs5B_Ew-eY2vl_" name="Page-1">
    <mxGraphModel dx="1227" dy="430" grid="1" gridSize="10" guides="1" tooltips="1" connect="1" arrows="1" fold="1" page="1" pageScale="1" pageWidth="827" pageHeight="1169" math="0" shadow="0">
      <root>
        <mxCell id="0" />
        <mxCell id="1" parent="0" />
        <mxCell id="Ef68ieK3l3BD5jQs9A68-1" value="Cliente" style="swimlane;fontStyle=1;align=center;verticalAlign=top;childLayout=stackLayout;horizontal=1;startSize=26;horizontalStack=0;resizeParent=1;resizeParentMax=0;resizeLast=0;collapsible=1;marginBottom=0;" vertex="1" parent="1">
          <mxGeometry x="230" y="100" width="420" height="154" as="geometry" />
        </mxCell>
        <mxCell id="Ef68ieK3l3BD5jQs9A68-2" value="- nombre: String&#xa;- tipo: ClientType&#xa;- comrpas : &lt;Compra&gt;" style="text;strokeColor=none;fillColor=none;align=left;verticalAlign=top;spacingLeft=4;spacingRight=4;overflow=hidden;rotatable=0;points=[[0,0.5],[1,0.5]];portConstraint=eastwest;" vertex="1" parent="Ef68ieK3l3BD5jQs9A68-1">
          <mxGeometry y="26" width="420" height="94" as="geometry" />
        </mxCell>
        <mxCell id="Ef68ieK3l3BD5jQs9A68-3" value="" style="line;strokeWidth=1;fillColor=none;align=left;verticalAlign=middle;spacingTop=-1;spacingLeft=3;spacingRight=3;rotatable=0;labelPosition=right;points=[];portConstraint=eastwest;" vertex="1" parent="Ef68ieK3l3BD5jQs9A68-1">
          <mxGeometry y="120" width="420" height="8" as="geometry" />
        </mxCell>
        <mxCell id="Ef68ieK3l3BD5jQs9A68-4" value="+ comprar(productos: &lt;Producto&gt;): Compra" style="text;strokeColor=none;fillColor=none;align=left;verticalAlign=top;spacingLeft=4;spacingRight=4;overflow=hidden;rotatable=0;points=[[0,0.5],[1,0.5]];portConstraint=eastwest;" vertex="1" parent="Ef68ieK3l3BD5jQs9A68-1">
          <mxGeometry y="128" width="420" height="26" as="geometry" />
        </mxCell>
        <mxCell id="Ef68ieK3l3BD5jQs9A68-5" value="ClientTypeÂ &#xa;&lt;&lt;interface&gt;&gt;" style="swimlane;fontStyle=1;align=center;verticalAlign=top;childLayout=stackLayout;horizontal=1;startSize=50;horizontalStack=0;resizeParent=1;resizeParentMax=0;resizeLast=0;collapsible=1;marginBottom=0;" vertex="1" parent="1">
          <mxGeometry x="40" y="380" width="420" height="152" as="geometry" />
        </mxCell>
        <mxCell id="Ef68ieK3l3BD5jQs9A68-6" value="+ getDiferencialEnvio(): double&#xa;+ setState(monto: double): ClientType" style="text;strokeColor=none;fillColor=none;align=left;verticalAlign=top;spacingLeft=4;spacingRight=4;overflow=hidden;rotatable=0;points=[[0,0.5],[1,0.5]];portConstraint=eastwest;" vertex="1" parent="Ef68ieK3l3BD5jQs9A68-5">
          <mxGeometry y="50" width="420" height="94" as="geometry" />
        </mxCell>
        <mxCell id="Ef68ieK3l3BD5jQs9A68-7" value="" style="line;strokeWidth=1;fillColor=none;align=left;verticalAlign=middle;spacingTop=-1;spacingLeft=3;spacingRight=3;rotatable=0;labelPosition=right;points=[];portConstraint=eastwest;" vertex="1" parent="Ef68ieK3l3BD5jQs9A68-5">
          <mxGeometry y="144" width="420" height="8" as="geometry" />
        </mxCell>
        <mxCell id="Ef68ieK3l3BD5jQs9A68-9" value="" style="endArrow=open;endFill=1;endSize=12;html=1;rounded=0;" edge="1" parent="1" source="Ef68ieK3l3BD5jQs9A68-4" target="Ef68ieK3l3BD5jQs9A68-5">
          <mxGeometry width="160" relative="1" as="geometry">
            <mxPoint x="280" y="390" as="sourcePoint" />
            <mxPoint x="440" y="390" as="targetPoint" />
          </mxGeometry>
        </mxCell>
        <mxCell id="Ef68ieK3l3BD5jQs9A68-10" value="1&lt;br&gt;- tipo" style="text;html=1;align=center;verticalAlign=middle;resizable=0;points=[];autosize=1;strokeColor=none;fillColor=none;" vertex="1" parent="1">
          <mxGeometry x="360" y="330" width="50" height="40" as="geometry" />
        </mxCell>
        <mxCell id="Ef68ieK3l3BD5jQs9A68-11" value="AdvancedClient" style="swimlane;fontStyle=1;align=center;verticalAlign=top;childLayout=stackLayout;horizontal=1;startSize=50;horizontalStack=0;resizeParent=1;resizeParentMax=0;resizeLast=0;collapsible=1;marginBottom=0;" vertex="1" parent="1">
          <mxGeometry x="-150" y="590" width="310" height="152" as="geometry" />
        </mxCell>
        <mxCell id="Ef68ieK3l3BD5jQs9A68-12" value="+ getDiferencialEnvio(): double&#xa;+ setState(monto: double): ClientType" style="text;strokeColor=none;fillColor=none;align=left;verticalAlign=top;spacingLeft=4;spacingRight=4;overflow=hidden;rotatable=0;points=[[0,0.5],[1,0.5]];portConstraint=eastwest;" vertex="1" parent="Ef68ieK3l3BD5jQs9A68-11">
          <mxGeometry y="50" width="310" height="94" as="geometry" />
        </mxCell>
        <mxCell id="Ef68ieK3l3BD5jQs9A68-13" value="" style="line;strokeWidth=1;fillColor=none;align=left;verticalAlign=middle;spacingTop=-1;spacingLeft=3;spacingRight=3;rotatable=0;labelPosition=right;points=[];portConstraint=eastwest;" vertex="1" parent="Ef68ieK3l3BD5jQs9A68-11">
          <mxGeometry y="144" width="310" height="8" as="geometry" />
        </mxCell>
        <mxCell id="Ef68ieK3l3BD5jQs9A68-14" value="PremiumClient" style="swimlane;fontStyle=1;align=center;verticalAlign=top;childLayout=stackLayout;horizontal=1;startSize=50;horizontalStack=0;resizeParent=1;resizeParentMax=0;resizeLast=0;collapsible=1;marginBottom=0;" vertex="1" parent="1">
          <mxGeometry x="180" y="590" width="310" height="152" as="geometry" />
        </mxCell>
        <mxCell id="Ef68ieK3l3BD5jQs9A68-15" value="+ getDiferencialEnvio(): double&#xa;+ setState(monto: double): ClientType" style="text;strokeColor=none;fillColor=none;align=left;verticalAlign=top;spacingLeft=4;spacingRight=4;overflow=hidden;rotatable=0;points=[[0,0.5],[1,0.5]];portConstraint=eastwest;" vertex="1" parent="Ef68ieK3l3BD5jQs9A68-14">
          <mxGeometry y="50" width="310" height="94" as="geometry" />
        </mxCell>
        <mxCell id="Ef68ieK3l3BD5jQs9A68-16" value="" style="line;strokeWidth=1;fillColor=none;align=left;verticalAlign=middle;spacingTop=-1;spacingLeft=3;spacingRight=3;rotatable=0;labelPosition=right;points=[];portConstraint=eastwest;" vertex="1" parent="Ef68ieK3l3BD5jQs9A68-14">
          <mxGeometry y="144" width="310" height="8" as="geometry" />
        </mxCell>
        <mxCell id="Ef68ieK3l3BD5jQs9A68-17" value="BasicClient" style="swimlane;fontStyle=1;align=center;verticalAlign=top;childLayout=stackLayout;horizontal=1;startSize=50;horizontalStack=0;resizeParent=1;resizeParentMax=0;resizeLast=0;collapsible=1;marginBottom=0;" vertex="1" parent="1">
          <mxGeometry x="510" y="590" width="310" height="152" as="geometry" />
        </mxCell>
        <mxCell id="Ef68ieK3l3BD5jQs9A68-18" value="+ getDiferencialEnvio(): double&#xa;+ setState(monto: double): ClientType" style="text;strokeColor=none;fillColor=none;align=left;verticalAlign=top;spacingLeft=4;spacingRight=4;overflow=hidden;rotatable=0;points=[[0,0.5],[1,0.5]];portConstraint=eastwest;" vertex="1" parent="Ef68ieK3l3BD5jQs9A68-17">
          <mxGeometry y="50" width="310" height="94" as="geometry" />
        </mxCell>
        <mxCell id="Ef68ieK3l3BD5jQs9A68-19" value="" style="line;strokeWidth=1;fillColor=none;align=left;verticalAlign=middle;spacingTop=-1;spacingLeft=3;spacingRight=3;rotatable=0;labelPosition=right;points=[];portConstraint=eastwest;" vertex="1" parent="Ef68ieK3l3BD5jQs9A68-17">
          <mxGeometry y="144" width="310" height="8" as="geometry" />
        </mxCell>
        <mxCell id="Ef68ieK3l3BD5jQs9A68-20" value="" style="endArrow=block;endSize=16;endFill=0;html=1;rounded=0;exitX=0.5;exitY=0;exitDx=0;exitDy=0;" edge="1" parent="1" source="Ef68ieK3l3BD5jQs9A68-14">
          <mxGeometry x="-0.12" y="-6" width="160" relative="1" as="geometry">
            <mxPoint x="400" y="480" as="sourcePoint" />
            <mxPoint x="290" y="530" as="targetPoint" />
            <mxPoint as="offset" />
          </mxGeometry>
        </mxCell>
        <mxCell id="Ef68ieK3l3BD5jQs9A68-21" value="" style="endArrow=block;endSize=16;endFill=0;html=1;rounded=0;exitX=0.198;exitY=0.011;exitDx=0;exitDy=0;exitPerimeter=0;" edge="1" parent="1" source="Ef68ieK3l3BD5jQs9A68-17">
          <mxGeometry x="-0.12" y="-6" width="160" relative="1" as="geometry">
            <mxPoint x="345" y="600" as="sourcePoint" />
            <mxPoint x="370" y="530" as="targetPoint" />
            <mxPoint as="offset" />
          </mxGeometry>
        </mxCell>
        <mxCell id="Ef68ieK3l3BD5jQs9A68-22" value="" style="endArrow=block;endSize=16;endFill=0;html=1;rounded=0;entryX=0.362;entryY=0.75;entryDx=0;entryDy=0;entryPerimeter=0;exitX=0.636;exitY=0;exitDx=0;exitDy=0;exitPerimeter=0;" edge="1" parent="1" source="Ef68ieK3l3BD5jQs9A68-11" target="Ef68ieK3l3BD5jQs9A68-7">
          <mxGeometry x="-0.12" y="-6" width="160" relative="1" as="geometry">
            <mxPoint x="270" y="570" as="sourcePoint" />
            <mxPoint x="380" y="540" as="targetPoint" />
            <mxPoint as="offset" />
          </mxGeometry>
        </mxCell>
      </root>
    </mxGraphModel>
  </diagram>
</mxfile>
